<svg width="202" height="96" viewBox="0 0 202 96" fill="none" xmlns="http://www.w3.org/2000/svg">
<path d="M81.8182 59.1591L81.7727 50.8636H82.9545L96.8636 36.0909H105L89.1364 52.9091H88.0682L81.8182 59.1591ZM75.5682 71V24.4545H82.3636V71H75.5682ZM97.6136 71L85.1136 54.4091L89.7955 49.6591L105.955 71H97.6136ZM124.392 84.8182C121.619 84.8182 119.233 84.4545 117.233 83.7273C115.248 83 113.627 82.0379 112.369 80.8409C111.112 79.6439 110.172 78.3333 109.551 76.9091L115.392 74.5C115.801 75.1667 116.347 75.8712 117.028 76.6136C117.725 77.3712 118.665 78.0152 119.847 78.5455C121.044 79.0758 122.581 79.3409 124.46 79.3409C127.036 79.3409 129.165 78.7121 130.847 77.4545C132.528 76.2121 133.369 74.2273 133.369 71.5V64.6364H132.938C132.528 65.3788 131.938 66.2045 131.165 67.1136C130.407 68.0227 129.362 68.8106 128.028 69.4773C126.695 70.1439 124.96 70.4773 122.824 70.4773C120.066 70.4773 117.581 69.8333 115.369 68.5455C113.172 67.2424 111.43 65.3258 110.142 62.7955C108.869 60.25 108.233 57.1212 108.233 53.4091C108.233 49.697 108.862 46.5152 110.119 43.8636C111.392 41.2121 113.134 39.1818 115.347 37.7727C117.559 36.3485 120.066 35.6364 122.869 35.6364C125.036 35.6364 126.786 36 128.119 36.7273C129.453 37.4394 130.491 38.2727 131.233 39.2273C131.991 40.1818 132.574 41.0227 132.983 41.75H133.483V36.0909H140.142V71.7727C140.142 74.7727 139.445 77.2348 138.051 79.1591C136.657 81.0833 134.771 82.5076 132.392 83.4318C130.028 84.3561 127.362 84.8182 124.392 84.8182ZM124.324 64.8409C126.278 64.8409 127.93 64.3864 129.278 63.4773C130.642 62.553 131.672 61.2348 132.369 59.5227C133.081 57.7955 133.438 55.7273 133.438 53.3182C133.438 50.9697 133.089 48.9015 132.392 47.1136C131.695 45.3258 130.672 43.9318 129.324 42.9318C127.975 41.9167 126.309 41.4091 124.324 41.4091C122.278 41.4091 120.574 41.9394 119.21 43C117.847 44.0455 116.816 45.4697 116.119 47.2727C115.438 49.0758 115.097 51.0909 115.097 53.3182C115.097 55.6061 115.445 57.6136 116.142 59.3409C116.839 61.0682 117.869 62.4167 119.233 63.3864C120.612 64.3561 122.309 64.8409 124.324 64.8409ZM156.051 50.2727V71H149.256V36.0909H155.778V41.7727H156.21C157.013 39.9242 158.271 38.4394 159.983 37.3182C161.71 36.197 163.884 35.6364 166.506 35.6364C168.884 35.6364 170.968 36.1364 172.756 37.1364C174.544 38.1212 175.93 39.5909 176.915 41.5455C177.9 43.5 178.392 45.9167 178.392 48.7955V71H171.597V49.6136C171.597 47.0833 170.938 45.1061 169.619 43.6818C168.301 42.2424 166.491 41.5227 164.188 41.5227C162.612 41.5227 161.21 41.8636 159.983 42.5455C158.771 43.2273 157.809 44.2273 157.097 45.5455C156.4 46.8485 156.051 48.4242 156.051 50.2727ZM191.983 71.4318C190.741 71.4318 189.672 70.9924 188.778 70.1136C187.884 69.2197 187.438 68.1439 187.438 66.8864C187.438 65.6439 187.884 64.5833 188.778 63.7045C189.672 62.8106 190.741 62.3636 191.983 62.3636C193.225 62.3636 194.294 62.8106 195.188 63.7045C196.081 64.5833 196.528 65.6439 196.528 66.8864C196.528 67.7197 196.316 68.4848 195.892 69.1818C195.483 69.8636 194.938 70.4091 194.256 70.8182C193.574 71.2273 192.816 71.4318 191.983 71.4318Z" fill="#EBDBB2"/>
<rect y="11" width="65" height="65" rx="5" fill="#EBDBB2"/>
<path d="M41.6364 71.6818C38.8182 71.6818 36.303 70.9621 34.0909 69.5227C31.8939 68.0682 30.1667 66 28.9091 63.3182C27.6667 60.6212 27.0455 57.3864 27.0455 53.6136C27.0455 49.8409 27.6742 46.6136 28.9318 43.9318C30.2045 41.25 31.947 39.197 34.1591 37.7727C36.3712 36.3485 38.8788 35.6364 41.6818 35.6364C43.8485 35.6364 45.5909 36 46.9091 36.7273C48.2424 37.4394 49.2727 38.2727 50 39.2273C50.7424 40.1818 51.3182 41.0227 51.7273 41.75H52.1364V24.4545H58.9318V71H52.2955V65.5682H51.7273C51.3182 66.3106 50.7273 67.1591 49.9545 68.1136C49.197 69.0682 48.1515 69.9015 46.8182 70.6136C45.4848 71.3258 43.7576 71.6818 41.6364 71.6818ZM43.1364 65.8864C45.0909 65.8864 46.7424 65.3712 48.0909 64.3409C49.4545 63.2955 50.4848 61.8485 51.1818 60C51.8939 58.1515 52.25 56 52.25 53.5455C52.25 51.1212 51.9015 49 51.2045 47.1818C50.5076 45.3636 49.4848 43.947 48.1364 42.9318C46.7879 41.9167 45.1212 41.4091 43.1364 41.4091C41.0909 41.4091 39.3864 41.9394 38.0227 43C36.6591 44.0606 35.6288 45.5076 34.9318 47.3409C34.25 49.1742 33.9091 51.2424 33.9091 53.5455C33.9091 55.8788 34.2576 57.9773 34.9545 59.8409C35.6515 61.7045 36.6818 63.1818 38.0455 64.2727C39.4242 65.3485 41.1212 65.8864 43.1364 65.8864Z" fill="#282828"/>
</svg>
